<?xml version="1.0" encoding="UTF-8"?>
<svg id="Layer_11" xmlns="http://www.w3.org/2000/svg" viewBox="0 0 187 21">
  <g id="Page-1-2">
    <g id="logo-2">
      <path id="Path-7" d="M2.88.96c.1.01.2.04.3.08.09.05.17.11.25.18.1.09.19.19.27.3l10.2,13c-.03-.31-.06-.62-.07-.92,0-.3-.02-.58-.02-.84V.94h3.18v19.43h-1.88c-.24,0-.49-.04-.71-.13-.22-.12-.41-.28-.55-.49L3.69,6.81c.03.29.05.57.06.87,0,.29,0,.54,0,.78v11.92H.59V.95h1.89c.14,0,.27,0,.41.02" style="fill: #1a5daa;"/>
      <path id="Shape-3" d="M25.79,6.37c.96-.01,1.91.16,2.8.5.82.31,1.55.79,2.17,1.41.61.64,1.08,1.4,1.37,2.23.33.94.49,1.94.48,2.94.01,1.01-.15,2.01-.48,2.96-.3.84-.77,1.6-1.37,2.25-.61.63-1.35,1.11-2.17,1.42-1.81.66-3.8.66-5.61,0-.82-.31-1.56-.8-2.17-1.42-.61-.65-1.08-1.41-1.39-2.25-.34-.95-.5-1.95-.49-2.96,0-1,.15-2,.49-2.94.3-.83.77-1.59,1.39-2.23.61-.62,1.35-1.1,2.17-1.41.9-.34,1.85-.51,2.81-.5M25.79,18.02c.99.07,1.95-.36,2.55-1.15.56-.77.84-1.9.84-3.39s-.27-2.62-.82-3.4c-.59-.8-1.55-1.24-2.55-1.17-1.17,0-2.02.39-2.6,1.18s-.84,1.92-.84,3.39.28,2.6.84,3.38,1.41,1.16,2.6,1.16" style="fill: #1a5daa;"/>
      <path id="Path-8" d="M34.37,20.37V6.59h1.95c.25-.03.51.04.71.19.16.18.25.41.26.65l.2,1.65c.43-.78,1.02-1.47,1.73-2.02.64-.49,1.42-.75,2.23-.74.6-.02,1.19.14,1.7.47l-.43,2.49c-.01.13-.08.26-.18.34-.11.07-.23.11-.36.1-.19,0-.37-.04-.55-.1-.3-.07-.62-.1-.93-.09-.64-.02-1.26.19-1.77.57-.54.45-.97,1.02-1.25,1.67v8.61h-3.31Z" style="fill: #1a5daa;"/>
      <path id="Path-9" d="M49.88,20.59c-1.02.06-2.02-.3-2.75-1.01-.68-.77-1.03-1.78-.97-2.8v-7.7h-1.38c-.18.01-.36-.06-.49-.2-.13-.13-.19-.32-.17-.5v-1.3l2.21-.36.7-3.76c.02-.17.11-.33.25-.43s.31-.15.49-.15h1.73v4.33h3.63v2.37h-3.63v7.47c-.02.37.09.73.32,1.01.22.25.54.38.87.36.17,0,.35-.02.52-.07.12-.05.25-.1.36-.16.1-.05.19-.1.28-.16.07-.05.16-.07.24-.07.09,0,.17.02.24.07.08.07.15.14.2.23l1,1.61c-.49.41-1.06.72-1.67.92-.63.2-1.29.31-1.95.31" style="fill: #1a5daa;"/>
      <path id="Path-10" d="M54.94,20.37V.4h3.32v7.67c.52-.5,1.12-.92,1.77-1.23.71-.33,1.49-.49,2.27-.47.69-.01,1.37.12,2.01.39.56.24,1.06.61,1.46,1.07.41.49.71,1.06.89,1.68.21.69.31,1.4.3,2.11v8.75h-3.32v-8.77c.04-.7-.16-1.39-.58-1.95-.45-.49-1.09-.74-1.75-.69-.56,0-1.11.13-1.61.39-.53.28-1.01.64-1.43,1.06v9.97h-3.33Z" style="fill: #1a5daa;"/>
      <path id="Shape-4" d="M75.11,6.37c.82,0,1.63.14,2.4.43.71.26,1.36.68,1.89,1.22.54.56.97,1.23,1.24,1.96.3.85.45,1.75.43,2.66,0,.21,0,.42-.03.62-.01.14-.06.27-.12.39-.05.09-.14.16-.23.2-.12.05-.25.07-.38.06h-8.5c.1,1.41.48,2.45,1.14,3.12.7.68,1.66,1.04,2.63,1,.47,0,.94-.06,1.39-.19.35-.12.69-.26,1.02-.43.29-.15.54-.29.77-.43.19-.12.41-.18.64-.19.12,0,.24.03.35.08.1.06.19.13.25.23l.97,1.21c-.36.42-.77.78-1.23,1.08-.45.29-.93.52-1.43.7-.49.17-1,.3-1.52.37-.5.07-1,.11-1.5.11-.91,0-1.82-.16-2.67-.48-.82-.31-1.56-.79-2.17-1.41-.63-.66-1.12-1.45-1.44-2.31-.37-1.02-.55-2.11-.52-3.19,0-.9.15-1.8.45-2.65.29-.8.73-1.54,1.3-2.17.58-.62,1.29-1.12,2.08-1.46.89-.37,1.84-.54,2.8-.52M75.19,8.76c-.84-.05-1.66.24-2.27.82-.59.64-.96,1.46-1.05,2.32h6.24c0-.41-.06-.82-.17-1.21-.11-.37-.29-.71-.54-1s-.56-.53-.91-.68c-.41-.17-.85-.26-1.3-.25" style="fill: #1a5daa;"/>
      <path id="Path-11" d="M82.97,20.37V6.59h1.95c.25-.03.5.04.71.19.16.18.25.41.27.65l.2,1.67c.43-.78,1.02-1.47,1.73-2.02.64-.49,1.42-.75,2.23-.74.6-.02,1.19.14,1.69.47l-.43,2.49c0,.13-.07.26-.17.34-.11.07-.24.11-.37.1-.19,0-.37-.04-.55-.1-.3-.07-.62-.1-.93-.09-.64-.02-1.27.19-1.78.57-.54.45-.97,1.02-1.25,1.67v8.59h-3.31,0Z" style="fill: #1a5daa;"/>
      <path id="Path-12" d="M93.14,20.37V6.59h2.03c.4-.04.76.22.87.6l.23,1.09c.27-.28.56-.54.87-.78.31-.23.63-.43.97-.59.35-.17.73-.3,1.11-.39.43-.09.86-.14,1.3-.13.69-.01,1.37.12,2,.39.56.24,1.06.61,1.46,1.07.39.49.69,1.05.87,1.66.21.69.31,1.4.3,2.11v8.77h-3.31v-8.77c.04-.7-.16-1.39-.58-1.95-.44-.48-1.08-.74-1.73-.69-.56,0-1.11.13-1.61.39-.53.28-1.01.64-1.43,1.06v9.97h-3.34v-.03Z" style="fill: #1a5daa;"/>
      <polygon id="Path-13" points="128.58 20.37 124.94 20.37 124.94 11.88 115.83 11.88 115.83 20.37 112.19 20.37 112.19 .94 115.83 .94 115.83 9.3 124.94 9.3 124.94 .94 128.58 .94 128.58 20.37" style="fill: #63666b;"/>
      <path id="Shape-5" d="M137.21,6.37c.82,0,1.63.14,2.4.43.71.27,1.35.68,1.89,1.22.54.56.96,1.23,1.23,1.96.3.85.45,1.75.43,2.66,0,.21,0,.42-.03.62-.01.14-.06.27-.12.39-.05.09-.14.16-.23.2-.12.05-.25.07-.38.06h-8.51c.1,1.41.48,2.45,1.14,3.12.7.68,1.66,1.04,2.63,1,.47,0,.94-.06,1.39-.19.35-.12.69-.26,1.02-.43.29-.15.54-.29.77-.43.19-.12.41-.18.64-.19.12,0,.25.03.36.09.1.06.19.14.26.23l.97,1.21c-.35.42-.76.79-1.22,1.09-.45.29-.93.52-1.43.7-.49.17-1,.3-1.52.37-.5.07-1,.11-1.5.11-.91,0-1.82-.16-2.67-.48-.82-.31-1.55-.79-2.17-1.41-.63-.66-1.12-1.45-1.43-2.31-.37-1.02-.56-2.1-.54-3.19,0-.9.15-1.8.46-2.65.28-.8.73-1.54,1.3-2.17.59-.63,1.31-1.13,2.11-1.46.88-.37,1.82-.55,2.77-.54M137.3,8.76c-.84-.05-1.66.24-2.27.82-.59.64-.96,1.46-1.05,2.32h6.24c0-.41-.06-.82-.17-1.21-.11-.37-.29-.71-.54-1s-.56-.53-.91-.68c-.41-.17-.85-.26-1.3-.25" style="fill: #63666b;"/>
      <path id="Shape-6" d="M155.87,20.37h-1.47c-.25,0-.51-.04-.74-.14-.21-.13-.35-.33-.41-.57l-.29-.98c-.32.3-.67.57-1.03.82-.33.23-.67.43-1.04.6-.37.16-.75.28-1.14.36-.44.09-.89.13-1.34.12-.55,0-1.11-.08-1.63-.25-.47-.14-.9-.38-1.27-.71-.36-.32-.64-.73-.83-1.17-.21-.52-.31-1.07-.29-1.63,0-.54.14-1.07.41-1.54.34-.56.81-1.03,1.37-1.36.79-.47,1.65-.81,2.54-1.02,1.29-.29,2.61-.43,3.94-.4v-.83c.06-.74-.15-1.47-.58-2.07-.44-.47-1.06-.71-1.7-.67-.46-.01-.91.05-1.35.19-.32.11-.64.26-.93.43l-.73.43c-.22.13-.48.19-.74.19-.21,0-.41-.06-.58-.18-.16-.12-.29-.26-.39-.43l-.61-1.06c1.56-1.44,3.62-2.21,5.74-2.17.74-.01,1.48.12,2.17.4.61.25,1.15.62,1.6,1.1.44.48.77,1.05.98,1.66.24.7.35,1.43.34,2.17v8.7h0ZM149.42,18.3c.32,0,.63-.03.94-.09.28-.06.55-.16.81-.28.26-.13.51-.28.74-.45.25-.2.5-.41.72-.64v-2.31c-.81,0-1.62.05-2.43.18-.54.09-1.06.25-1.56.47-.33.14-.62.37-.84.66-.16.25-.25.53-.25.83-.05.48.15.95.52,1.26.4.27.87.4,1.35.38h0Z" style="fill: #63666b;"/>
      <rect id="Rectangle" x="158.54" y=".4" width="3.32" height="19.97" style="fill: #63666b;"/>
      <path id="Path-14" d="M169.34,20.59c-1.02.07-2.02-.3-2.76-1.01-.68-.77-1.03-1.78-.97-2.8v-7.7h-1.4c-.18,0-.36-.06-.49-.2-.13-.13-.19-.32-.17-.5v-1.3l2.22-.36.7-3.76c.02-.17.11-.33.25-.43s.32-.15.49-.15h1.73v4.33h3.62v2.37h-3.62v7.47c-.02.36.09.72.32,1.01.22.25.54.38.87.36.17,0,.35-.02.52-.07.12-.05.25-.1.36-.16.09-.05.19-.1.27-.16.07-.05.16-.07.24-.07.09,0,.17.02.24.07.08.07.14.14.2.23l1,1.61c-.49.41-1.06.72-1.67.92-.63.2-1.28.31-1.95.31" style="fill: #63666b;"/>
      <path id="Path-15" d="M174.4,20.37V.4h3.32v7.67c.52-.5,1.12-.92,1.77-1.23.71-.33,1.49-.49,2.27-.47.69-.01,1.37.12,2.01.39.56.24,1.06.61,1.46,1.07.4.49.69,1.05.87,1.66.21.68.31,1.4.3,2.11v8.77h-3.32v-8.77c.04-.7-.16-1.39-.58-1.95-.45-.49-1.09-.74-1.75-.69-.56,0-1.11.13-1.61.39-.53.28-1,.64-1.42,1.06v9.97h-3.32Z" style="fill: #63666b;"/>
    </g>
  </g>
</svg>